<svg width="35" height="35" viewBox="0 0 35 35" fill="none" xmlns="http://www.w3.org/2000/svg">
<path d="M10.2704 25.7017L5.89535 23.8424C5.3441 23.6061 4.69879 23.8664 4.46254 24.422C4.22629 24.9777 4.48441 25.6208 5.04223 25.8549L9.41723 27.7142C9.55504 27.7733 9.70161 27.8017 9.84379 27.8017C10.2682 27.8017 10.6729 27.5524 10.85 27.1345C11.0863 26.5789 10.8282 25.9358 10.2704 25.7017Z" fill="#C00000"/>
<path d="M34.9847 7.60451C34.9781 7.49294 34.9716 7.38138 34.93 7.26982C34.9059 7.20638 34.8622 7.16263 34.8272 7.10576C34.8031 7.06638 34.7856 7.03138 34.7594 6.99638C34.6369 6.83669 34.4859 6.71419 34.3044 6.64419C34.2978 6.64201 34.2956 6.63544 34.2891 6.63326L16.7891 0.0729436C16.5244 -0.0298689 16.2334 -0.0233064 15.9753 0.0882561L0.662813 6.64857C0.6475 6.65513 0.640938 6.67263 0.625625 6.67919C0.474688 6.75138 0.347813 6.86294 0.242812 7.00076C0.212187 7.04013 0.185937 7.07513 0.159688 7.11888C0.137812 7.15607 0.105 7.18232 0.0875 7.22388C0.0284375 7.36388 0 7.50826 0 7.65263V7.65482V27.3423C0 27.7798 0.260312 28.1758 0.662813 28.3486L15.9753 34.9111H15.9775C16.1109 34.9679 16.2553 34.9986 16.4062 34.9986C16.5375 34.9986 16.6666 34.9745 16.7913 34.9286L16.8306 34.9133C16.8306 34.9133 16.8306 34.9133 16.8328 34.9133L34.2912 28.3661C34.7178 28.2064 35 27.7973 35 27.3423V7.65482C35 7.63513 34.9847 7.62201 34.9847 7.60451ZM15.3125 32.2445L2.1875 26.6204V9.31506L15.3125 14.9391V32.2445ZM16.4325 13.0383L3.87188 7.65482L16.4325 2.27357L30.7913 7.65482L27.3678 8.93888L21.2297 6.18919C20.9191 6.04919 20.5647 6.06451 20.2694 6.22638L15.9797 8.04857C15.575 8.21919 15.3125 8.62169 15.3125 9.06138C15.3125 9.50326 15.5794 9.90357 15.9906 10.072L19.9697 11.7148L16.4325 13.0383ZM24.0625 12.5133L26.25 11.6929V17.0239L24.0625 17.8442V12.5133ZM22.9731 10.5861L19.2325 9.04388L20.7812 8.38544L24.4563 10.0304L22.9731 10.5861ZM32.8125 26.5833L17.5 32.3254V14.9742L21.875 13.3336V19.4236C21.875 19.7823 22.0522 20.117 22.3453 20.3226C22.5312 20.4517 22.7478 20.5173 22.9688 20.5173C23.0978 20.5173 23.2291 20.4933 23.3537 20.4473L27.7287 18.8067C28.1553 18.6448 28.4375 18.2379 28.4375 17.7829V10.8726L32.8125 9.23201V26.5833Z" fill="#C00000"/>
</svg>
