<svg width="45" height="45" viewBox="0 0 45 45" fill="none" xmlns="http://www.w3.org/2000/svg">
<path d="M20.0207 37.8644C18.6097 37.3846 17.1927 36.6784 15.6872 35.7031C15.3392 35.4781 14.8748 35.576 14.649 35.922C14.4233 36.2681 14.5215 36.7307 14.8688 36.9557C16.4801 37.999 18.0066 38.759 19.5369 39.2785C19.6171 39.3053 19.6989 39.3188 19.7791 39.3188C20.0912 39.3188 20.383 39.123 20.4888 38.8136C20.6223 38.4227 20.413 37.9974 20.0207 37.8644Z" fill="#C00000"/>
<path d="M12.1128 32.8722C11.9372 32.6547 11.7452 32.426 11.5464 32.1906C10.9628 31.4979 10.3004 30.7132 9.9471 30.0136C9.7603 29.6451 9.30951 29.4956 8.93969 29.6825C8.56987 29.8686 8.42061 30.3177 8.60741 30.6862C9.03947 31.5411 9.76109 32.3969 10.398 33.1524C10.5893 33.3789 10.7746 33.5986 10.9425 33.8071C11.0911 33.9917 11.3086 34.0873 11.5284 34.0873C11.6927 34.0873 11.8585 34.0336 11.9972 33.923C12.3206 33.6643 12.3723 33.1942 12.1128 32.8722Z" fill="#C00000"/>
<path d="M43.3622 29.3192C39.9146 27.1706 37.5066 20.7112 37.5066 13.6114C37.5066 11.3268 37.7429 9.11167 38.2095 7.02807C38.2996 6.62529 38.0445 6.2254 37.6402 6.13572C37.2343 6.04753 36.8345 6.30011 36.7445 6.70297C36.2547 8.89343 36.0063 11.2177 36.0063 13.6114C36.0063 21.3196 38.6431 28.1413 42.567 30.5859C42.6908 30.6629 42.8281 30.6995 42.9639 30.6995C43.2137 30.6995 43.4582 30.5754 43.6007 30.349C43.8197 29.9992 43.7132 29.5373 43.3622 29.3192Z" fill="#C00000"/>
<path d="M16.917 1.01718C16.7633 0.956659 16.5945 0.946149 16.4347 0.99099C6.75867 3.68599 0 12.5637 0 22.5796C0 34.9422 10.0953 45 22.504 45C26.2051 45 29.8778 44.083 33.1251 42.3476C33.3223 42.2423 33.4618 42.0539 33.5062 41.8357L33.7469 40.6333L33.7627 40.5354C34.128 38.2485 34.5061 35.8846 34.5061 33.4161C34.5061 18.2555 27.4376 5.23518 16.917 1.01718ZM32.2813 40.3L32.105 41.1938C29.1525 42.7072 25.8406 43.5054 22.5041 43.5054C10.9227 43.5053 1.5003 34.1179 1.5003 22.5796C1.5003 13.3162 7.69338 5.0962 16.593 2.4999C26.4205 6.59389 33.0059 18.9744 33.0059 33.4161C33.0059 35.7666 32.6376 38.0714 32.2813 40.3Z" fill="#C00000"/>
<path d="M43.5077 16.163C21.5476 15.9888 8.59578 23.3218 1.59406 29.53C1.28498 29.8043 1.25729 30.2766 1.53252 30.5852C1.68029 30.7511 1.88661 30.8356 2.09284 30.8356C2.26988 30.8356 2.44842 30.7728 2.59091 30.6465C9.39538 24.6132 22.0254 17.4805 43.4934 17.6577C43.4964 17.6577 43.4987 17.6577 43.5009 17.6577C43.9119 17.6577 44.2473 17.3273 44.251 16.917C44.2549 16.5045 43.9219 16.1667 43.5077 16.163Z" fill="#C00000"/>
<path d="M6.82697 7.63264C6.59815 7.63264 6.37092 7.62292 6.14359 7.61171C5.72727 7.60426 5.37846 7.91061 5.35894 8.3232C5.33872 8.735 5.65826 9.08549 6.0723 9.10494C6.32283 9.11694 6.57416 9.12736 6.82697 9.12736C16.7542 9.12736 24.8302 18.6822 24.8302 30.4267C24.8302 35.6566 23.5557 40.2857 21.1448 43.8132C20.9115 44.1547 21 44.6195 21.3428 44.852C21.4719 44.9394 21.6189 44.9812 21.7644 44.9812C22.0045 44.9812 22.24 44.8668 22.3856 44.6546C24.9661 40.8776 26.3305 35.9578 26.3305 30.4266C26.3305 17.8578 17.5809 7.63264 6.82697 7.63264Z" fill="#C00000"/>
<path d="M22.6749 0C10.3644 0 0.348877 10.0578 0.348877 22.4204C0.348877 34.7829 10.3644 44.8408 22.6749 44.8408C34.9855 44.8408 45.001 34.7829 45.001 22.4204C45.001 10.0578 34.9855 0 22.6749 0ZM22.6749 43.346C11.1852 43.346 1.83731 33.9586 1.83731 22.4204C1.83731 10.8821 11.1852 1.49472 22.6749 1.49472C34.1647 1.49472 43.5126 10.8821 43.5126 22.4204C43.5126 33.9586 34.1647 43.346 22.6749 43.346Z" fill="#C00000"/>
</svg>
