<svg width="35" height="35" viewBox="0 0 35 35" fill="none" xmlns="http://www.w3.org/2000/svg">
<path d="M26.4337 19.0909C24.001 19.0909 22.022 21.5378 22.022 24.5455C22.022 27.5532 24.001 30.0001 26.4337 30.0001C28.8669 30.0001 30.8455 27.5532 30.8455 24.5455C30.8455 21.5378 28.8664 19.0909 26.4337 19.0909ZM26.4337 27.2728C25.2172 27.2728 24.2279 26.0496 24.2279 24.5455C24.2279 23.0414 25.2172 21.8182 26.4337 21.8182C27.6503 21.8182 28.6396 23.0414 28.6396 24.5455C28.6396 26.0497 27.6503 27.2728 26.4337 27.2728Z" fill="#C00000"/>
<path d="M11.3605 19.0909C8.9278 19.0909 6.94873 21.5378 6.94873 24.5455C6.94873 27.5532 8.9278 30.0001 11.3605 30.0001C13.7932 30.0001 15.7723 27.5532 15.7723 24.5455C15.7723 21.5378 13.7932 19.0909 11.3605 19.0909ZM11.3605 27.2728C10.144 27.2728 9.15462 26.0496 9.15462 24.5455C9.15462 23.0414 10.144 21.8182 11.3605 21.8182C12.5767 21.8182 13.5664 23.0414 13.5664 24.5455C13.5664 26.0497 12.577 27.2728 11.3605 27.2728Z" fill="#C00000"/>
<path d="M29.4049 3.47823C29.2173 3.01778 28.8361 2.72729 28.4192 2.72729H22.6104V5.45458H27.739L30.7423 12.84L32.7136 11.6145L29.4049 3.47823Z" fill="#C00000"/>
<path d="M23.1249 23.2273H14.7793V25.9546H23.1249V23.2273Z" fill="#C00000"/>
<path d="M8.05138 23.2273H4.22791C3.61869 23.2273 3.125 23.8378 3.125 24.5909C3.125 25.3441 3.61876 25.9545 4.22791 25.9545H8.05145C8.66067 25.9545 9.15436 25.344 9.15436 24.5909C9.15436 23.8377 8.6606 23.2273 8.05138 23.2273Z" fill="#C00000"/>
<path d="M34.7684 14.8909L32.599 11.4363C32.3905 11.1036 32.0688 10.909 31.728 10.909H23.7133V1.3636C23.7133 0.610382 23.2195 0 22.6104 0H4.228C3.61878 0 3.12509 0.610466 3.12509 1.3636C3.12509 2.11673 3.61885 2.7272 4.228 2.7272H21.5074V12.2726C21.5074 13.0259 22.0011 13.6362 22.6103 13.6362H31.1879L32.7941 16.1944V23.2271H29.7426C29.1334 23.2271 28.6397 23.8376 28.6397 24.5907C28.6397 25.344 29.1335 25.9543 29.7426 25.9543H33.897C34.5062 25.9543 34.9999 25.3439 35 24.5907V15.7273C35 15.4245 34.9184 15.13 34.7684 14.8909Z" fill="#C00000"/>
<path d="M7.97774 16.3182H2.90418C2.29496 16.3182 1.80127 16.9287 1.80127 17.6818C1.80127 18.4351 2.29503 19.0454 2.90418 19.0454H7.97767C8.58689 19.0454 9.08058 18.435 9.08058 17.6818C9.08065 16.9287 8.58689 16.3182 7.97774 16.3182Z" fill="#C00000"/>
<path d="M10.5147 10.9545H1.10291C0.493759 10.9545 0 11.5649 0 12.3181C0 13.0714 0.493759 13.6817 1.10291 13.6817H10.5147C11.1239 13.6817 11.6176 13.0713 11.6176 12.3181C11.6176 11.565 11.1239 10.9545 10.5147 10.9545Z" fill="#C00000"/>
<path d="M12.316 5.59094H2.90418C2.29496 5.59094 1.80127 6.20141 1.80127 6.95454C1.80127 7.70776 2.29503 8.31814 2.90418 8.31814H12.316C12.9252 8.31814 13.4189 7.70767 13.4189 6.95454C13.4189 6.20141 12.9252 5.59094 12.316 5.59094Z" fill="#C00000"/>
</svg>
