<svg width="35" height="35" viewBox="0 0 35 35" fill="none" xmlns="http://www.w3.org/2000/svg">
<path d="M31.3171 9.20929C30.5922 9.55999 30.2889 10.4323 30.6396 11.1568C31.5977 13.136 32.0833 15.2694 32.0833 17.5C32.0833 25.5411 25.5411 32.0833 17.5 32.0833C9.45887 32.0833 2.91667 25.5411 2.91667 17.5C2.91667 9.45887 9.45887 2.91667 17.5 2.91667C20.8322 2.91667 23.9625 4.00472 26.5533 6.06298C27.1818 6.56464 28.1007 6.45961 28.6023 5.82906C29.104 5.19887 28.999 4.28101 28.3681 3.78006C25.3008 1.34226 21.441 0 17.5 0C7.851 0 0 7.851 0 17.5C0 27.149 7.851 35 17.5 35C27.149 35 35 27.149 35 17.5C35 14.8262 34.4161 12.2637 33.2647 9.88683C32.9147 9.16051 32.0395 8.85788 31.3171 9.20929Z" fill="#C00000"/>
<path d="M17.4583 7C16.6533 7 16 7.65333 16 8.45833V18.6667C16 19.4717 16.6533 20.125 17.4583 20.125H24.75C25.555 20.125 26.2083 19.4717 26.2083 18.6667C26.2083 17.8617 25.555 17.2083 24.75 17.2083H18.9167V8.45833C18.9167 7.65333 18.2633 7 17.4583 7Z" fill="#C00000"/>
</svg>
