<svg width="30" height="30" viewBox="0 0 30 30" fill="none" xmlns="http://www.w3.org/2000/svg">
<path d="M8.38021 21.2806H9.33453H25.6056C25.9987 21.2806 26.3452 20.9786 26.4574 20.538L29.963 6.77438C30.0431 6.45991 29.9914 6.11967 29.8238 5.85657C29.656 5.59348 29.3919 5.4385 29.1113 5.4385H6.49156L5.29554 0.742554C5.18333 0.302009 4.83687 7.56573e-09 4.4437 7.56573e-09H0.88881C0.39797 -6.85064e-05 0 0.46521 0 1.03922C0 1.61316 0.39797 2.07851 0.88881 2.07851H3.78106L4.9714 6.75191C4.97503 6.76733 4.97884 6.78261 4.98306 6.79768L8.14513 19.2125C6.34021 19.3545 4.90858 21.1157 4.90858 23.2616C4.90858 25.4999 6.46595 27.321 8.38015 27.321H9.26252C9.64813 28.8668 10.8702 30 12.3151 30C13.76 30 14.982 28.8669 15.3676 27.321H20.0834C20.469 28.8668 21.691 30 23.136 30C24.5808 30 25.8029 28.8669 26.1885 27.321H27.3336C27.8245 27.321 28.2224 26.8556 28.2224 26.2817C28.2224 25.7077 27.8245 25.2424 27.3336 25.2424H26.1885C25.8029 23.6964 24.5809 22.5634 23.136 22.5634C21.691 22.5634 20.469 23.6964 20.0834 25.2424H15.3676C14.982 23.6964 13.76 22.5634 12.3151 22.5634C10.8702 22.5634 9.64807 23.6964 9.26252 25.2424H8.38015C7.44605 25.2424 6.68615 24.3538 6.68615 23.2615C6.68615 22.1693 7.44611 21.2806 8.38021 21.2806ZM21.4188 7.51694H27.9192L26.6958 12.3202H21.4188V7.51694ZM21.4187 14.3988H26.1663L24.9429 19.2021H21.4187V14.3988ZM14.8421 7.51694H19.6412V12.3202H14.8421V7.51694ZM14.842 14.3988H19.6411V19.2021H14.842V14.3988ZM13.0646 19.2021H9.99723L8.77385 14.3988H13.0646V19.2021ZM7.02107 7.51694H13.0645V12.3202H8.24445L7.02107 7.51694ZM23.136 24.6419C23.9093 24.6419 24.5384 25.3774 24.5384 26.2816C24.5384 27.1858 23.9093 27.9214 23.136 27.9214C22.3628 27.9214 21.7337 27.1858 21.7337 26.2816C21.7337 25.3774 22.3628 24.6419 23.136 24.6419ZM12.3151 24.6419C13.0884 24.6419 13.7175 25.3774 13.7175 26.2816C13.7175 27.1858 13.0884 27.9214 12.3151 27.9214C11.5419 27.9214 10.9128 27.1858 10.9128 26.2816C10.9128 25.3774 11.5419 24.6419 12.3151 24.6419Z" fill="white"/>
</svg>
