<svg width="45" height="45" viewBox="0 0 45 45" fill="none" xmlns="http://www.w3.org/2000/svg">
<path d="M12.3047 20.2947C12.3047 19.7294 11.8472 19.272 11.2819 19.272C10.7166 19.272 10.2592 19.7294 10.2592 20.2947C10.2592 22.9804 13.2215 26.6678 13.5591 27.0803C13.7619 27.3261 14.0554 27.4539 14.351 27.4539C14.5788 27.4539 14.8085 27.3779 14.9992 27.2221C15.4356 26.8635 15.4985 26.2194 15.141 25.7819C14.0445 24.4456 12.3047 21.7748 12.3047 20.2947Z" fill="#C00000"/>
<path d="M33.782 19.272C33.2167 19.272 32.7592 19.7294 32.7592 20.2947C32.7592 21.7699 31.0194 24.4436 29.9228 25.7829C29.5652 26.2194 29.6291 26.8636 30.0656 27.2221C30.2554 27.3779 30.4851 27.4539 30.7138 27.4539C31.0094 27.4539 31.302 27.3261 31.5048 27.0803C31.8424 26.6678 34.8047 22.9804 34.8047 20.2947C34.8047 19.7294 34.3473 19.272 33.782 19.272Z" fill="#C00000"/>
<path d="M22.532 19.272C21.9667 19.272 21.5092 19.7294 21.5092 20.2947V26.4311C21.5092 26.9964 21.9667 27.4539 22.532 27.4539C23.0973 27.4539 23.5548 26.9964 23.5548 26.4311V20.2947C23.5547 19.7294 23.0972 19.272 22.532 19.272Z" fill="#C00000"/>
<path d="M33.75 4.09094C33.1302 4.09094 32.4825 4.17292 31.8099 4.29785C29.5574 1.67206 26.2229 0 22.5 0C18.7771 0 15.4425 1.67206 13.1901 4.29776C12.5174 4.17292 11.8697 4.09085 11.25 4.09085C5.04667 4.09094 0 9.13763 0 15.3409C0 19.5916 2.39701 23.4558 6.16033 25.3664L6.14038 40.8222C6.13942 41.9378 6.5728 42.9865 7.36085 43.7755C8.14985 44.5656 9.19753 45 10.3132 45H34.6908C36.992 45 38.8636 43.1283 38.8636 40.8272V25.3514C42.613 23.4358 45 19.5776 45 15.3409C44.9999 9.13763 39.9532 4.09094 33.75 4.09094ZM36.8181 40.8273C36.8181 41.9998 35.8634 42.9547 34.6907 42.9547H10.3131C9.74482 42.9547 9.21048 42.7329 8.80797 42.3305C8.40642 41.928 8.18475 41.3936 8.18571 40.8244L8.19108 36.8182H36.8181V40.8273ZM37.4513 23.7594C37.3973 23.7814 37.3464 23.8074 37.2985 23.8384C37.1696 23.9182 37.0638 24.0242 36.9849 24.1459C36.905 24.2667 36.851 24.4066 36.8291 24.5564C36.82 24.6134 36.8171 24.6703 36.818 24.7282V34.7727H8.19366L8.2068 24.7421C8.20776 24.6862 8.20479 24.6293 8.19683 24.5743C8.17487 24.4195 8.11792 24.2757 8.03498 24.1508C7.95703 24.0339 7.85521 23.9321 7.73133 23.8542C7.68042 23.8222 7.62643 23.7942 7.57054 23.7712C4.21376 22.3033 2.04542 18.9973 2.04542 15.3409C2.04542 10.2652 6.17432 6.13637 11.25 6.13637C11.4483 6.13637 11.6577 6.16034 11.8632 6.17654C10.8285 7.97488 10.2272 10.053 10.2272 12.2727C10.2272 12.838 10.6846 13.2955 11.25 13.2955C11.8153 13.2955 12.2727 12.838 12.2727 12.2727C12.2727 6.6337 16.861 2.04542 22.5 2.04542C28.139 2.04542 32.7272 6.6337 32.7272 12.2727C32.7272 12.838 33.1846 13.2955 33.75 13.2955C34.3153 13.2955 34.7727 12.838 34.7727 12.2727C34.7727 10.053 34.1714 7.97498 33.1367 6.17654C33.3422 6.16034 33.5516 6.13637 33.75 6.13637C38.8257 6.13637 42.9545 10.2653 42.9545 15.3409C42.9545 18.9844 40.7952 22.2862 37.4513 23.7594Z" fill="#C00000"/>
</svg>
