<svg width="15" height="16" viewBox="0 0 15 16" fill="none" xmlns="http://www.w3.org/2000/svg">
<path d="M7.50003 8.88002C7.95751 8.88002 8.32504 8.48402 8.32504 8.00001C8.32504 7.516 7.95755 7.12 7.50003 7.12C7.04627 7.12 6.67502 7.516 6.67502 8.00001C6.67502 8.48402 7.0463 8.88002 7.50003 8.88002Z" fill="white"/>
<path d="M7.5 0C3.35627 0 0 3.58002 0 8C0 12.416 3.35627 16 7.5 16C11.6437 16 15 12.416 15 8C15 3.58002 11.6438 0 7.5 0ZM9.1425 9.752L2.99999 12.8L5.8575 6.248L12 3.19999L9.1425 9.752Z" fill="white"/>
</svg>
