<svg width="35" height="35" viewBox="0 0 35 35" fill="none" xmlns="http://www.w3.org/2000/svg">
<path d="M29.8906 7.57148C29.5359 6.8332 29.1063 6.12227 28.6123 5.4585C28.1227 4.80088 27.566 4.18291 26.9571 3.62236C26.3476 3.06113 25.6803 2.55254 24.9736 2.11025C24.2599 1.66318 23.4997 1.27969 22.7132 0.97002C21.0779 0.326758 19.3442 0 17.5613 0C15.7305 0 13.9547 0.343848 12.2824 1.02061C11.4794 1.346 10.7043 1.74932 9.97913 2.21826C9.26111 2.68311 8.58591 3.21631 7.97205 3.8042C7.3582 4.39209 6.8015 5.03877 6.31614 5.72646C5.8265 6.421 5.40614 7.1627 5.06568 7.93242C4.35901 9.53408 4 11.2349 4 12.9883C4.00285 13.9638 4.19912 15.0657 4.5831 16.2641C4.92713 17.3387 5.41677 18.4933 6.08056 19.7941C6.92065 21.4334 8.01836 23.2401 9.3438 25.1631C10.3974 26.6916 11.6036 28.3076 12.9297 29.9667C14.165 31.5111 15.2564 32.7835 16.0044 33.6328H11.7085C11.3143 33.6328 10.9948 33.9389 10.9948 34.3164C10.9948 34.694 11.3143 35 11.7085 35H23.4141C23.8083 35 24.1278 34.694 24.1278 34.3164C24.1278 33.9389 23.8083 33.6328 23.4141 33.6328H19.1171C19.9393 32.699 21.1793 31.2519 22.5519 29.5148C23.9758 27.7115 25.2491 25.9711 26.3362 24.3414C27.7066 22.2872 28.8008 20.38 29.5888 18.6724C29.7472 18.3278 29.5838 17.9231 29.2241 17.7714C29.1319 17.7324 29.0356 17.7126 28.9357 17.7126C28.653 17.7126 28.3968 17.8726 28.2826 18.1207C26.5689 21.8442 23.6011 25.9232 21.4141 28.6897C20.17 30.2641 19.0424 31.5875 18.3165 32.4201C18.0581 32.7168 17.804 33.0039 17.5613 33.2746C16.4921 32.0817 13.732 28.9188 11.1261 25.2533C9.43455 22.8751 8.09555 20.691 7.14552 18.7612C6.01706 16.478 5.42255 14.4813 5.42754 12.9883C5.42754 9.88477 6.69013 6.9665 8.9813 4.7708C11.2738 2.57647 14.3208 1.36719 17.5613 1.36719H17.5634C24.085 1.36719 29.4096 6.25215 29.6844 12.4886C29.7001 12.8563 30.0134 13.1435 30.3967 13.1435C30.4067 13.1435 30.4174 13.1435 30.4274 13.1428C30.8208 13.1271 31.1269 12.8078 31.1105 12.4312C31.0354 10.7379 30.6251 9.10273 29.8906 7.57148V7.57148Z" fill="#C00000"/>
<path d="M21.8271 9.35355C21.5051 9.13582 21.0597 9.20945 20.8324 9.51782L17.0628 14.6324L14.0923 11.503C13.8272 11.2236 13.3758 11.203 13.0841 11.457C12.7924 11.7109 12.7709 12.1433 13.0361 12.4226L16.6048 16.1824C16.7405 16.3253 16.9546 16.4055 17.1549 16.4055C17.3709 16.3927 17.5912 16.2861 17.7161 16.1168L21.9986 10.3063C22.2259 9.99784 22.1492 9.57127 21.8271 9.35355Z" fill="#C00000"/>
<path d="M30.0245 16.1863C30.4187 16.1863 30.7383 15.8802 30.7383 15.5027C30.7383 15.1251 30.4187 14.8191 30.0245 14.8191C29.6303 14.8191 29.3108 15.1251 29.3108 15.5027C29.3108 15.8802 29.6303 16.1863 30.0245 16.1863Z" fill="#C00000"/>
<path d="M17.5614 3.41797C12.0427 3.41797 7.56894 7.70273 7.56894 12.9883C7.56894 18.2738 12.0428 22.5586 17.5614 22.5586C23.0801 22.5586 27.5539 18.2738 27.5539 12.9883C27.5539 7.70273 23.0801 3.41797 17.5614 3.41797ZM17.5614 21.1914C12.8311 21.1914 8.99641 17.5187 8.99641 12.9883C8.99641 8.45783 12.8311 4.78516 17.5614 4.78516C22.2918 4.78516 26.1265 8.45783 26.1265 12.9883C26.1265 17.5187 22.2917 21.1914 17.5614 21.1914Z" fill="#C00000"/>
</svg>
