<svg width="14" height="14" viewBox="0 0 14 14" fill="none" xmlns="http://www.w3.org/2000/svg">
<path d="M7 0C5.61553 0 4.26215 0.410543 3.11101 1.17971C1.95987 1.94888 1.06266 3.04213 0.532846 4.32121C0.00303298 5.6003 -0.13559 7.00776 0.134506 8.36563C0.404603 9.7235 1.07129 10.9708 2.05026 11.9497C3.02922 12.9287 4.2765 13.5954 5.63437 13.8655C6.99224 14.1356 8.3997 13.997 9.67879 13.4672C10.9579 12.9373 12.0511 12.0401 12.8203 10.889C13.5895 9.73784 14 8.38447 14 7C14 6.08075 13.8189 5.17049 13.4672 4.32121C13.1154 3.47194 12.5998 2.70026 11.9497 2.05025C11.2997 1.40024 10.5281 0.884626 9.67879 0.532843C8.82951 0.18106 7.91925 0 7 0ZM7 12.6C5.89243 12.6 4.80972 12.2716 3.88881 11.6562C2.96789 11.0409 2.25013 10.1663 1.82628 9.14302C1.40243 8.11976 1.29153 6.99379 1.50761 5.90749C1.72368 4.8212 2.25703 3.82337 3.0402 3.0402C3.82338 2.25703 4.8212 1.72368 5.9075 1.5076C6.99379 1.29153 8.11976 1.40242 9.14303 1.82627C10.1663 2.25012 11.0409 2.96789 11.6562 3.88881C12.2716 4.80972 12.6 5.89242 12.6 7C12.6 8.48521 12.01 9.90959 10.9598 10.9598C9.9096 12.01 8.48521 12.6 7 12.6ZM9.17 7.441L7.7 6.594V3.5C7.7 3.31435 7.62625 3.1363 7.49498 3.00502C7.3637 2.87375 7.18565 2.8 7 2.8C6.81435 2.8 6.6363 2.87375 6.50503 3.00502C6.37375 3.1363 6.3 3.31435 6.3 3.5V7C6.3 7 6.3 7.056 6.3 7.084C6.30415 7.13223 6.31596 7.17949 6.335 7.224C6.34942 7.26553 6.36819 7.30542 6.391 7.343C6.41016 7.38279 6.43363 7.42034 6.461 7.455L6.573 7.546L6.636 7.609L8.456 8.659C8.56268 8.71946 8.68338 8.75084 8.806 8.75C8.96099 8.75108 9.11196 8.70069 9.23523 8.60674C9.3585 8.51278 9.4471 8.38056 9.48714 8.23083C9.52718 8.08109 9.51638 7.9223 9.45646 7.77936C9.39653 7.63642 9.29085 7.51741 9.156 7.441H9.17Z" fill="black"/>
</svg>
