<svg width="25" height="25" viewBox="0 0 30 30" fill="none" xmlns="http://www.w3.org/2000/svg">
<path d="M15.0001 16.65C15.915 16.65 16.6501 15.9075 16.6501 15C16.6501 14.0925 15.9151 13.35 15.0001 13.35C14.0925 13.35 13.35 14.0925 13.35 15C13.35 15.9075 14.0926 16.65 15.0001 16.65Z" fill="currentColor"/>
<path d="M15 0C6.71253 0 0 6.71253 0 15C0 23.28 6.71253 30 15 30C23.2875 30 30 23.28 30 15C30.0001 6.71253 23.2875 0 15 0ZM18.285 18.285L5.99999 24L11.715 11.715L24 5.99999L18.285 18.285Z" fill="currentColor"/>
</svg>
