<svg width="45" height="45" viewBox="0 0 45 45" fill="none" xmlns="http://www.w3.org/2000/svg">
<path d="M15.5684 15H14.2501V17.6367H16.8868V15H15.5684Z" fill="#C00000"/>
<path d="M31.3932 17.6367V15H30.0748H28.7565V17.6367H31.3932Z" fill="#C00000"/>
<path d="M43.9157 30.5524C43.662 29.7875 43.3998 28.9965 43.1396 28.0144C42.6673 26.2312 42.2978 22.8214 41.9718 19.813C41.8496 18.6843 41.7341 17.6183 41.6207 16.7115C41.1037 12.576 38.1488 9.53534 35.2854 7.51465C34.641 6.39062 33.8419 5.33883 32.8983 4.38618C30.0966 1.55769 26.4038 0 22.4996 0C18.5962 0 14.9034 1.55769 12.1017 4.38618C11.1581 5.33883 10.359 6.39062 9.71464 7.51465C6.85116 9.53534 3.89619 12.576 3.37931 16.7115C3.26593 17.6182 3.15044 18.6843 3.02818 19.813C2.7022 22.8214 2.33271 26.2312 1.86038 28.0144C1.60022 28.9965 1.33796 29.7875 1.08431 30.5524C0.502471 32.3071 0 33.8223 0 36.372C0 38.6463 0.896221 40.8016 2.52378 42.4408C4.16215 44.0911 6.32997 45 8.62796 45C12.5957 45 15.946 42.3076 16.949 38.6539C17.3935 38.7599 17.8521 38.816 18.3173 38.8184H18.3473C19.9414 38.8184 21.4245 38.1785 22.5 37.0788C23.5756 38.1787 25.0584 38.8185 26.6527 38.8184H26.6828C27.148 38.816 27.6066 38.7599 28.051 38.6539C29.0541 42.3076 32.4043 45 36.372 45C38.6699 45 40.8379 44.0911 42.4762 42.4408C44.1038 40.8016 45 38.6464 45 36.372C45 33.8223 44.4975 32.3071 43.9157 30.5524ZM8.62796 42.3633C7.03793 42.3633 5.53465 41.7311 4.39488 40.5831C3.26109 39.4412 2.63672 37.9456 2.63672 36.372C2.63672 34.2481 3.0353 33.046 3.58699 31.3823C3.84073 30.6171 4.12831 29.7497 4.40912 28.6895C4.93251 26.7135 5.31343 23.1983 5.64943 20.0969C5.77055 18.9793 5.88489 17.9236 5.99555 17.0385C6.20051 15.3987 6.93976 13.9516 7.936 12.7018C7.84494 13.3554 7.79634 14.3564 7.79634 15.0246L7.79467 15.0257C7.75345 16.5532 7.74035 19.7332 9.37248 23.9455L12.1975 30.8325L12.3496 33.2619L12.3513 33.2854C12.4726 34.7912 13.1493 36.1861 14.257 37.2134C14.3429 37.293 14.4315 37.369 14.5213 37.4431C14.0147 40.2372 11.5658 42.3633 8.62796 42.3633ZM20.9747 31.6122C20.5645 31.3661 20.3096 30.9159 20.3096 30.4374C20.3096 29.682 20.9241 29.0674 21.6796 29.0674H23.3204C24.0759 29.0674 24.6904 29.682 24.6904 30.4374C24.6904 30.9159 24.4356 31.366 24.0253 31.6121L22.5 32.5274L20.9747 31.6122ZM30.1979 30.2339L30.0195 33.0847C29.8725 34.842 28.4342 36.1726 26.6695 36.1815C26.6639 36.1815 26.6585 36.1815 26.653 36.1815C25.5569 36.1815 24.5584 35.6272 23.9766 34.7163L25.3819 33.873C26.5817 33.1531 27.3271 31.8366 27.3271 30.4373C27.3271 28.228 25.5298 26.4306 23.3204 26.4306H21.6796C19.4702 26.4306 17.6729 28.228 17.6729 30.4373C17.6729 31.8365 18.4182 33.153 19.6182 33.873L21.0234 34.7163C20.4416 35.6273 19.4431 36.1815 18.347 36.1815C18.3416 36.1815 18.336 36.1815 18.3306 36.1815C16.5659 36.1726 15.1276 34.842 14.9806 33.0847L14.8022 30.2339L11.8267 22.9809C10.3831 19.2491 10.4157 16.4175 10.4315 15.0561L10.4333 15.0549C10.4333 11.9598 11.725 8.51326 13.9751 6.24173C16.2778 3.91702 19.3052 2.63672 22.5004 2.63672C25.6948 2.63672 28.7222 3.91702 31.025 6.24173C33.2751 8.51326 34.5656 11.5912 34.5656 14.6863L34.5654 14.6863C34.5811 16.0478 34.617 19.249 33.1734 22.9809L30.1979 30.2339ZM40.6051 40.5831C39.4654 41.7311 37.9621 42.3633 36.372 42.3633C33.4342 42.3633 30.9853 40.2372 30.4787 37.4432C30.5685 37.3691 30.657 37.2931 30.743 37.2135C31.8507 36.1862 32.5274 34.7912 32.6487 33.2855L32.8025 30.8326L35.6179 23.9696L35.6274 23.9455C37.2596 19.7332 37.2204 16.2143 37.2028 14.6863L37.2024 14.6863C37.2024 14.0179 37.1551 13.3554 37.064 12.7018C38.0602 13.9516 38.7995 15.3987 39.0045 17.0385C39.1151 17.9237 39.2295 18.9794 39.3506 20.0969C39.6866 23.1983 40.0675 26.7134 40.5909 28.6895C40.8717 29.7497 41.1594 30.6171 41.413 31.3823C41.9647 33.0461 42.3633 34.2481 42.3633 36.372C42.3633 37.9456 41.7389 39.4412 40.6051 40.5831Z" fill="#C00000"/>
</svg>
