<svg width="45" height="45" viewBox="0 0 45 45" fill="none" xmlns="http://www.w3.org/2000/svg">
<path d="M8.04391 4.94507H8.03328C6.40563 4.96889 5.08183 6.31309 5.08183 7.94154V12.2236H0.662342C0.296542 12.2236 0 12.5201 0 12.8859C0 13.2517 0.296542 13.5483 0.662342 13.5483H5.08191V17.0307H0.662342C0.296542 17.0307 0 17.3272 0 17.693C0 18.0588 0.296542 18.3554 0.662342 18.3554H5.08191V21.8377H0.662342C0.296542 21.8378 0 22.1343 0 22.5001C0 22.8659 0.296542 23.1625 0.662342 23.1625H5.08191V26.6448H0.662342C0.296542 26.6448 0 26.9414 0 27.3072C0 27.673 0.296542 27.9695 0.662342 27.9695H5.08191V31.4519H0.662342C0.296542 31.4519 0 31.7485 0 32.1143C0 32.4801 0.296542 32.7766 0.662342 32.7766H5.08191V35.0416C5.08191 35.4072 5.37863 35.7039 5.74426 35.7039C6.10988 35.7039 6.4066 35.4072 6.4066 35.0416V7.94162C6.4066 7.03283 7.14488 6.28312 8.05367 6.26897C8.41929 6.2637 8.71161 5.96337 8.70546 5.59687C8.7001 5.23476 8.40514 4.94507 8.04391 4.94507Z" fill="#C00000"/>
<path d="M36.0499 38.4566H8.07924C7.3966 38.4566 6.78901 38.0486 6.53026 37.4171C6.39157 37.078 6.00564 36.9164 5.66656 37.055C5.32739 37.1937 5.16585 37.5805 5.30445 37.9187C5.76719 39.05 6.85616 39.7812 8.07924 39.7812H12.2235V44.3376C12.2235 44.7034 12.5201 45 12.8859 45C13.2517 45 13.5482 44.7034 13.5482 44.3376V39.7812H17.0306V44.3376C17.0306 44.7034 17.3272 45 17.693 45C18.0588 45 18.3553 44.7034 18.3553 44.3376V39.7812H21.8376V44.3376C21.8376 44.7034 22.1342 45 22.5 45C22.8658 45 23.1623 44.7034 23.1623 44.3376V39.7812H26.6446V44.3376C26.6446 44.7034 26.9411 45 27.3069 45C27.6727 45 27.9693 44.7034 27.9693 44.3376V39.7812H31.4517V44.3376C31.4517 44.7034 31.7482 45 32.114 45C32.4798 45 32.7764 44.7034 32.7764 44.3376V39.7812H36.0499C36.4155 39.7812 36.7122 39.4845 36.7122 39.1188C36.7122 38.7525 36.4155 38.4566 36.0499 38.4566Z" fill="#C00000"/>
<path d="M31.4832 11.2622H13.5168C12.3492 11.2622 11.3999 12.2116 11.3999 13.3791V31.3465C11.3999 32.5141 12.3493 33.4634 13.5168 33.4634H31.4833C32.6508 33.4634 33.6001 32.514 33.6001 31.3465V13.3791C33.6001 12.2115 32.6507 11.2622 31.4832 11.2622ZM12.7245 13.3791C12.7245 12.9419 13.0795 12.5869 13.5167 12.5869H27.2175V19.5045C26.0201 19.7633 25.0742 20.7092 24.8155 21.9067H19.9344V18.5101C21.1858 18.2655 22.1326 17.1607 22.1326 15.8386C22.1326 14.3381 20.9112 13.1168 19.4099 13.1168C18.0879 13.1168 16.9832 14.0635 16.7384 15.314H12.7245V13.3791ZM27.88 20.7586C28.8779 20.7586 29.6896 21.571 29.6896 22.569C29.6896 23.567 28.878 24.3786 27.88 24.3786C26.8749 24.3786 26.0696 23.559 26.0696 22.569C26.0696 21.5772 26.8772 20.7586 27.88 20.7586ZM19.4099 17.2366C18.644 17.2366 18.0119 16.6136 18.0119 15.8386C18.0119 15.0685 18.6389 14.4415 19.4099 14.4415C20.1809 14.4415 20.8079 15.0685 20.8079 15.8386C20.8079 16.6163 20.1747 17.2366 19.4099 17.2366ZM16.5494 28.0621C16.1653 27.8466 15.9056 27.4342 15.9056 26.9635C15.9056 26.2684 16.4717 25.7032 17.1668 25.7032C17.8618 25.7032 18.427 26.2684 18.427 26.9635C18.427 27.9266 17.3853 28.5346 16.5494 28.0621ZM21.9064 32.1387H17.4626V29.5317C18.7493 29.3851 19.7517 28.2891 19.7517 26.9635C19.7517 25.5381 18.5922 24.3785 17.1668 24.3785C15.7405 24.3785 14.581 25.5381 14.581 26.9635C14.581 28.0233 15.2221 28.9373 16.1379 29.3356V32.1387H13.5168C13.0796 32.1387 12.7246 31.7828 12.7246 31.3465V16.6387H16.8073C16.8129 16.6478 17.1689 17.9984 18.6098 18.4412V22.569C18.6098 22.9347 18.9065 23.2314 19.2721 23.2314H21.9064V32.1387ZM32.2754 31.3465C32.2754 31.7828 31.9204 32.1387 31.4833 32.1387H23.231V29.2743H32.2754V31.3465ZM32.2754 27.9496H23.231V23.2314H24.8155C25.1203 24.6426 26.3787 25.7033 27.88 25.7033C29.6083 25.7033 31.0143 24.2973 31.0143 22.569C31.0143 21.0677 29.9536 19.8093 28.5424 19.5045C28.5424 19.5045 28.5423 19.5045 28.5422 19.5045V12.5869H31.4832C31.9203 12.5869 32.2753 12.9419 32.2753 13.3791V27.9496H32.2754Z" fill="#C00000"/>
<path d="M44.3376 18.3554C44.7034 18.3554 44.9999 18.0589 44.9999 17.6931C44.9999 17.3273 44.7034 17.0307 44.3376 17.0307H39.918V13.5483H44.3376C44.7034 13.5483 44.9999 13.2518 44.9999 12.886C44.9999 12.5202 44.7034 12.2236 44.3376 12.2236H39.918V7.94156C39.918 6.28921 38.5739 4.94422 36.9207 4.94422H32.7764V0.662346C32.7764 0.296544 32.4798 0 32.114 0C31.7482 0 31.4517 0.296544 31.4517 0.662346V4.94413H27.9693V0.662346C27.9693 0.296544 27.6727 0 27.3069 0C26.9411 0 26.6446 0.296544 26.6446 0.662346V4.94413H23.1623V0.662346C23.1623 0.296544 22.8657 0 22.4999 0C22.1341 0 21.8376 0.296544 21.8376 0.662346V4.94413H18.3553V0.662346C18.3553 0.296544 18.0587 0 17.6929 0C17.3271 0 17.0306 0.296544 17.0306 0.662346V4.94413H13.5482V0.662346C13.5482 0.296544 13.2517 0 12.8859 0C12.5201 0 12.2235 0.296544 12.2235 0.662346V4.94413H10.6933C10.3268 4.94413 10.031 5.24085 10.031 5.60648C10.031 5.9721 10.3268 6.26882 10.6933 6.26882C14.163 6.26882 34.1438 6.26882 36.9207 6.26882C37.8435 6.26882 38.5933 7.0195 38.5933 7.94148V36.784C38.5933 37.2458 38.4096 37.676 38.0749 37.9947C37.81 38.2473 37.7994 38.6668 38.052 38.9309C38.1827 39.0677 38.3567 39.1366 38.5315 39.1366C38.6958 39.1366 38.86 39.0757 38.989 38.9538C39.5878 38.3824 39.9181 37.6114 39.9181 36.784V32.7766H44.3376C44.7034 32.7766 45 32.48 45 32.1142C45 31.7484 44.7034 31.4519 44.3376 31.4519H39.9181V27.9695H44.3376C44.7034 27.9695 45 27.6729 45 27.3071C45 26.9413 44.7034 26.6448 44.3376 26.6448H39.9181V23.1624H44.3376C44.7034 23.1624 45 22.8659 45 22.5001C45 22.1343 44.7034 21.8377 44.3376 21.8377H39.9181V18.3554H44.3376Z" fill="#C00000"/>
</svg>
