<svg width="45" height="45" viewBox="0 0 45 45" fill="none" xmlns="http://www.w3.org/2000/svg">
<path d="M41.3377 35.4328L40.8481 35.3132C45.5929 31.1695 46.604 21.9687 42.1349 17.1747C40.4152 15.3309 39.388 12.4129 39.388 9.3683C39.388 4.95528 36.6647 1.36426 33.3166 1.36426C29.9695 1.36426 27.2452 4.95528 27.2452 9.3683C27.2452 10.3711 27.134 11.3592 26.9225 12.2998C23.8034 8.46212 18.8502 8.02221 15.5382 10.4754V1.47368C15.5382 1.08355 15.2412 0.766972 14.8756 0.766972C14.5096 0.766972 14.2126 1.08355 14.2126 1.47368V4.24857C12.2326 0.440882 8.62978 -0.577648 4.59502 0.288267C4.18749 0.376103 3.95506 0.838705 4.1123 1.24934C4.14938 1.34559 5.04237 3.63994 6.76758 5.64881C8.80933 8.0266 11.3434 9.20726 14.2126 8.36038V10.4754C10.3189 7.59145 3.79953 8.62682 1.12125 15.2028C0.97568 15.5607 1.13018 15.9761 1.46595 16.1317C1.80206 16.2872 2.19174 16.1232 2.33765 15.7649C4.78865 9.74819 10.6496 9.26216 13.758 11.872C14.4052 12.4524 15.349 12.4495 15.9927 11.872C19.5314 8.90094 25.6532 10.194 27.7509 16.6949C28.8788 20.1963 28.6532 23.8579 26.6956 27.6455C25.9169 29.1303 25.2769 30.3647 24.7482 31.3928C20.6427 30.45 20.0567 30.1052 18.6593 30.1374C18.2934 30.1451 18.0026 30.4672 18.0105 30.8573C18.0177 31.2486 18.3191 31.5593 18.6868 31.5498C18.9271 31.5443 19.2001 31.5575 19.4881 31.5952L19.0906 35.4014C19.05 35.7889 19.312 36.1385 19.6759 36.1816C20.0412 36.2248 20.3677 35.9441 20.4082 35.5576L20.7928 31.8781C23.4408 32.5226 25.1643 32.9427 27.2178 33.4434L27.0282 35.2583C26.9877 35.6462 27.2497 35.9957 27.6136 36.0389C27.9789 36.0821 28.3054 35.8014 28.3459 35.4145L28.5186 33.7599C28.9282 33.8599 38.3374 36.1509 38.4551 36.1798L37.9432 41.0792C37.9027 41.4672 38.165 41.8167 38.5286 41.8599C38.8943 41.9031 39.2204 41.6223 39.2609 41.2359L39.7563 36.4968L41.0428 36.8104C42.6375 37.1983 43.6908 38.7776 43.5089 40.5112C43.3286 42.2354 41.9646 43.5386 40.3376 43.5423L33.5521 43.5562L33.7931 41.252C33.8336 40.864 33.5717 40.5145 33.2078 40.4713C32.8435 40.4285 32.516 40.7074 32.4754 41.0953L32.2179 43.5591L25.7147 43.5723L25.9409 41.406C25.9814 41.0185 25.7195 40.669 25.3556 40.6258C24.9927 40.5822 24.6638 40.8618 24.6232 41.2498C24.5669 41.7896 24.386 43.5178 24.3805 43.5752L21.2669 43.5815L21.661 39.8107C21.7015 39.4232 21.4396 39.0736 21.0757 39.0305C20.7114 38.9869 20.3839 39.2665 20.3434 39.6545L19.9324 43.5844C19.9259 43.5844 19.9211 43.5844 19.9173 43.5844C19.9169 43.5844 19.9163 43.5844 19.9159 43.5844C19.9149 43.5844 19.9139 43.5844 19.9128 43.5844C19.9128 43.5844 19.9125 43.5844 19.9121 43.5844C19.9108 43.5844 19.9101 43.5844 19.9087 43.5844C19.8658 43.5844 19.6577 43.5847 18.8107 43.5866C16.2087 43.5866 13.9781 41.6944 13.344 39.0799C12.6934 36.4093 13.8325 33.4273 16.3968 32.1284C16.7274 31.9608 16.8686 31.5395 16.7113 31.1871C16.5541 30.8346 16.1589 30.6839 15.8283 30.8518C14.536 31.5055 13.4933 32.5365 12.7995 33.7969C11.4577 33.0836 9.92308 31.9615 9.10459 30.3091C8.04681 28.167 4.99602 28.9714 4.98572 31.3898L2.9086 27.3644C1.48483 24.6067 0.96332 21.5116 1.58302 18.3173C1.65718 17.9349 1.42647 17.5608 1.06769 17.4818C0.708916 17.4027 0.358724 17.6487 0.284566 18.0311C-0.380112 21.4589 0.124576 24.9024 1.74645 28.0459L4.57854 33.533L2.50313 33.2864C1.30218 33.144 0.221738 34.0641 0.0881839 35.345C-0.0450263 36.6219 0.820154 37.777 2.0187 37.9193L5.45505 38.327C4.60291 39.1402 3.91695 39.8773 4.00312 41.0397C4.15213 43.0943 6.57703 43.9504 7.84425 42.373C8.88727 41.0719 10.517 40.2682 12.1691 39.8345C13.0673 42.8272 15.7047 45 18.8107 45C19.8208 44.9978 39.1195 44.9583 40.3393 44.9557C42.8452 44.9506 44.8551 42.7858 44.8551 40.1295C44.8547 37.8685 43.4086 35.9368 41.3377 35.4328ZM5.70155 1.5209C10.1095 0.879329 12.8891 3.11878 13.8174 7.01027C10.2262 8.04088 7.40204 5.01457 5.70155 1.5209ZM39.1191 34.8919L26.0971 31.7203C26.4734 30.9854 26.8909 30.1744 27.3558 29.2821C28.5835 31.5366 30.8725 33.0554 33.4879 33.0554C36.8528 33.0554 39.7742 30.506 40.4334 26.9933C40.5051 26.6108 40.2717 26.2386 39.9129 26.1625C39.5531 26.086 39.205 26.3338 39.1332 26.7162C38.5976 29.5702 36.2235 31.6424 33.4879 31.6424C31.0661 31.6424 28.989 30.0397 28.1396 27.7772C29.241 25.5425 29.7687 23.1812 29.7508 20.8389C33.0769 17.8071 38.2052 19.7194 39.1147 24.1986C39.1926 24.5804 39.5442 24.8226 39.9033 24.7396C40.261 24.6569 40.4883 24.2806 40.4104 23.8993C40.0739 22.2399 39.2039 20.7313 37.9638 19.6517C35.6076 17.6018 32.2396 17.3705 29.6458 19.1638C29.425 17.3065 28.8458 15.3708 27.9205 13.7583C28.3456 12.392 28.5711 10.9051 28.5711 9.3683C28.5711 6.10776 30.4763 2.77768 33.3166 2.77768C36.1267 2.77768 38.062 6.06311 38.062 9.3683C38.062 12.8283 39.2039 16.0365 41.1945 18.1716C44.647 21.8725 44.313 28.7434 41.314 32.7908C40.6624 33.6699 39.9208 34.3766 39.1191 34.8919ZM11.8869 38.4431C9.99827 38.9327 8.08732 39.8953 6.83659 41.4544C6.52794 41.839 5.98342 41.884 5.62293 41.5554C5.26141 41.2249 5.21918 40.6466 5.52852 40.2624C6.10565 39.5432 6.7971 38.9174 7.53285 38.4138C8.05471 38.054 7.86553 37.1914 7.24652 37.1186C6.67248 37.0501 2.59961 36.5659 2.1653 36.5143C1.69426 36.4587 1.35299 36.0038 1.40518 35.5017C1.45737 35.005 1.87451 34.6357 2.35619 34.6914C2.35894 34.6917 2.36168 34.6917 2.36409 34.6921C2.36271 34.6921 2.36134 34.6917 2.36031 34.6917C2.3634 34.6921 2.36855 34.6928 2.3761 34.6936C2.37576 34.6936 2.37542 34.6936 2.37473 34.6936C2.38194 34.6943 2.38709 34.6947 2.39018 34.6954C2.38778 34.695 2.38434 34.6947 2.38057 34.6939C2.51618 34.71 3.30823 34.8041 6.97254 35.2396C7.18335 35.2253 7.82571 35.5163 8.10655 34.9022C8.22946 34.6328 8.18002 34.3115 7.98364 34.0977C7.34025 33.3983 6.81084 32.6334 6.41052 31.825C6.18873 31.3774 6.35044 30.8215 6.7693 30.585H6.77033C7.19399 30.3475 7.71035 30.5221 7.93248 30.9686C8.90924 32.9416 10.7007 34.254 12.2422 35.0709C11.8903 36.1289 11.7588 37.3045 11.8869 38.4431Z" fill="#C00000"/>
</svg>
