<svg width="45" height="45" viewBox="0 0 45 45" fill="none" xmlns="http://www.w3.org/2000/svg">
<path d="M43.7093 14.5116C42.8107 13.3291 41.7754 13.0206 41.2773 12.8791C40.6717 12.6992 40.0368 12.6607 39.4215 12.7635C36.9309 5.15419 30.2696 0 22.5048 0C15.1794 0 8.70384 5.19275 6.06672 12.8791C5.29508 12.6607 4.50395 12.6607 3.73241 12.892C3.23428 13.0334 2.19894 13.3419 1.30039 14.5245C1.13438 14.7429 -0.281882 16.6967 0.0502308 19.4858C0.372546 22.2493 2.18923 23.9717 3.7422 24.4087C4.27943 24.5629 4.82635 24.55 5.36358 24.3958C5.41238 24.3829 5.46128 24.3701 5.50028 24.3572C5.65659 24.7043 6.15471 26.5423 4.94356 34.46C4.91426 34.6657 4.92406 34.8842 4.97286 35.0899C5.68589 38.0976 6.83835 39.5629 8.72343 39.8457C8.76253 39.8457 8.79183 39.8586 8.83084 39.8586V43.7146C8.83084 44.4216 9.27036 45 9.80758 45C10.3448 45 10.7843 44.4216 10.7843 43.7146V39.8586H34.2254V43.7146C34.2254 44.4216 34.6649 45 35.2022 45C35.7394 45 36.1789 44.4216 36.1789 43.7146V39.8586C36.218 39.8586 36.2473 39.8586 36.2863 39.8457C38.1714 39.5629 39.3337 38.0976 40.0369 35.0899C40.0857 34.8842 40.0955 34.6657 40.0662 34.46C38.855 26.5295 39.3532 24.6914 39.5095 24.3572C39.5486 24.3701 39.5974 24.3829 39.6462 24.3958C40.1736 24.55 40.7303 24.5629 41.2577 24.4087C42.8107 23.9716 44.6274 22.2493 44.9497 19.4858C45.2817 16.6838 43.8656 14.73 43.7093 14.5116ZM22.5048 2.57077C29.4004 2.57077 35.3095 6.99231 37.5559 13.5605C37.2238 13.8047 36.9015 14.0746 36.5987 14.3702C35.749 15.1543 34.997 16.1311 34.4011 17.2622C33.9421 18.1491 33.5807 19.1131 33.3072 20.1286C32.5649 22.8278 32.35 26.0412 32.2914 28.2777H12.7181C12.6595 26.0412 12.4349 22.8278 11.7024 20.1286C11.4289 19.1131 11.0675 18.1491 10.6084 17.2622C10.0126 16.144 9.27036 15.1543 8.41083 14.3702C8.23502 14.2031 8.04941 14.0361 7.8639 13.8818C10.1983 7.13366 15.9707 2.57077 22.5048 2.57077ZM43.0353 19.0874C42.84 20.7454 41.6289 21.6709 40.867 21.8766C40.5838 21.9537 40.3005 21.9408 40.0271 21.8509C39.695 21.7609 39.236 21.6452 38.7183 21.9666C37.0872 22.9306 36.9114 26.6067 38.1128 34.6273C37.4975 37.0051 36.7258 37.1852 36.1398 37.275H8.87974C8.29371 37.185 7.51237 37.0051 6.90675 34.6273C8.10811 26.6067 7.9323 22.9306 6.30122 21.9666C5.78359 21.6581 5.32448 21.7738 4.99246 21.8509C4.71895 21.9409 4.42593 21.9537 4.15251 21.8766C3.39068 21.6581 2.17952 20.7454 1.98421 19.0874C1.79861 17.532 2.67765 16.3367 2.67765 16.3239C3.17577 15.6684 3.7813 15.4885 4.15251 15.3856C4.65064 15.2313 5.17806 15.2313 5.67618 15.3856C6.32081 15.5784 6.72124 15.9511 7.28776 16.4653C7.95189 17.0822 8.53792 17.8405 8.99704 18.7146C9.35845 19.4216 9.64167 20.1928 9.85657 20.9897C10.6477 23.9074 10.7747 27.6092 10.7747 29.5501C10.7747 30.2571 11.2142 30.8355 11.7515 30.8355H33.2392C33.7764 30.8355 34.2159 30.2571 34.2159 29.5501C34.2159 27.5964 34.3429 23.8946 35.134 20.9768C35.3489 20.1799 35.6322 19.4087 35.9936 18.7017C36.4624 17.8278 37.0386 17.0566 37.7029 16.4524C38.2596 15.9382 38.6698 15.5655 39.3046 15.3727C39.8125 15.2313 40.3302 15.2313 40.8381 15.3727C41.2092 15.4755 41.8148 15.6555 42.313 16.311C42.3321 16.3368 43.2111 17.5322 43.0353 19.0874Z" fill="#C00000"/>
</svg>
