<svg width="45" height="45" viewBox="0 0 45 45" fill="none" xmlns="http://www.w3.org/2000/svg">
<path d="M44.6583 20.8202L36.3554 12.8727C36.3651 12.8183 36.3748 12.764 36.3845 12.6987V2.3049C36.3748 1.68519 35.9383 1.18507 35.3855 1.16332H30.7491C30.2156 1.16332 29.7791 1.69606 29.7791 2.3049V6.61029L23.1349 0.260933C22.776 -0.0869775 22.2425 -0.0869775 21.8739 0.260933L0.350504 20.8094C-0.0665791 21.1899 -0.115077 21.8748 0.224409 22.3424C0.563895 22.8099 1.17497 22.8642 1.59205 22.4837C1.60175 22.4728 1.60175 22.4728 1.61145 22.4619L22.5044 2.52235L29.9828 9.66538L34.4543 13.9273L43.407 22.4728C43.8144 22.8642 44.4255 22.8099 44.7747 22.3532C45.1142 21.8966 45.0657 21.2116 44.6583 20.8202ZM34.4349 11.0353L31.719 8.46944V3.34863H34.4349V11.0353Z" fill="#C00000"/>
<path d="M40.3808 23.0165L37.6552 20.4072L23.1349 6.50166C22.776 6.15375 22.2425 6.15375 21.874 6.50166L7.35365 20.4072L4.62807 23.0165C4.22068 23.4079 4.17218 24.0929 4.52137 24.5495C4.86086 25.0061 5.46223 25.0605 5.85992 24.68L5.86961 24.6691L7.08207 23.4949V43.8803C7.09176 44.4891 7.53795 44.9892 8.08112 45.0001H36.918C37.4612 44.9892 37.9074 44.5 37.9171 43.8803V23.4949L39.1296 24.6691C39.3041 24.8322 39.5175 24.93 39.7503 24.93C40.0316 24.93 40.3032 24.7887 40.4875 24.5495C40.8464 24.082 40.7882 23.397 40.3808 23.0165ZM26.3843 42.8148H18.6246V31.0728H26.3843V42.8148ZM28.3242 42.8148V30.0182C28.3242 29.4202 27.9265 28.8984 27.393 28.8984H17.6158C17.0824 28.8984 16.6847 29.4202 16.6847 30.0182V42.8148H9.02199V21.6357L22.5044 8.76307L35.9869 21.6357V42.8148H28.3242Z" fill="#C00000"/>
</svg>
