<svg width="15" height="15" viewBox="0 0 15 15" fill="none" xmlns="http://www.w3.org/2000/svg">
<path d="M7.5 15C7.28645 15 7.08057 14.913 6.92013 14.7551C6.31416 14.1595 5.72994 13.5998 5.2145 13.1062L5.21187 13.1036C3.70068 11.6561 2.39571 10.406 1.48773 9.17466C0.472755 7.79804 0 6.49281 0 5.06693C0 3.68157 0.42263 2.40348 1.18996 1.46794C1.96644 0.521344 3.03188 0 4.19037 0C5.05623 0 5.84919 0.307687 6.54716 0.914443C6.89941 1.22071 7.2187 1.59555 7.5 2.03277C7.78141 1.59555 8.10059 1.22071 8.45295 0.914443C9.15092 0.307687 9.94389 0 10.8097 0C11.9681 0 13.0337 0.521344 13.8102 1.46794C14.5775 2.40348 15 3.68157 15 5.06693C15 6.49281 14.5274 7.79804 13.5124 9.17453C12.6044 10.406 11.2996 11.656 9.78859 13.1033C9.27223 13.5978 8.6871 14.1584 8.07976 14.7553C7.91943 14.913 7.71343 15 7.5 15V15ZM4.19037 0.987634C3.28022 0.987634 2.44411 1.39591 1.83586 2.13734C1.21857 2.88997 0.878563 3.93034 0.878563 5.06693C0.878563 6.26616 1.2751 7.3387 2.16419 8.54449C3.02353 9.71002 4.30172 10.9343 5.78167 12.352L5.78442 12.3546C6.3018 12.8502 6.88831 13.412 7.49874 14.012C8.11283 13.4109 8.70026 12.8481 9.21867 12.3517C10.6985 10.9341 11.9766 9.71002 12.8359 8.54449C13.7249 7.3387 14.1214 6.26616 14.1214 5.06693C14.1214 3.93034 13.7814 2.88997 13.1641 2.13734C12.556 1.39591 11.7198 0.987634 10.8097 0.987634C10.143 0.987634 9.53087 1.22586 8.99036 1.69562C8.50868 2.11445 8.17314 2.6439 7.97642 3.01436C7.87525 3.20486 7.69718 3.31857 7.5 3.31857C7.30282 3.31857 7.12475 3.20486 7.02358 3.01436C6.82697 2.6439 6.49143 2.11445 6.00964 1.69562C5.46913 1.22586 4.85699 0.987634 4.19037 0.987634V0.987634Z" fill="#ACACAC"/>
</svg>
