<svg width="23" height="30" viewBox="0 0 23 30" fill="none" xmlns="http://www.w3.org/2000/svg">
<path d="M20.125 30H2.875C1.29056 30 0 28.7387 0 27.1875V14.0625C0 12.5112 1.29056 11.25 2.875 11.25H20.125C21.7094 11.25 23 12.5112 23 14.0625V27.1875C23 28.7387 21.7094 30 20.125 30ZM2.875 13.125C2.34728 13.125 1.91667 13.545 1.91667 14.0625V27.1875C1.91667 27.705 2.34728 28.125 2.875 28.125H20.125C20.6527 28.125 21.0833 27.705 21.0833 27.1875V14.0625C21.0833 13.545 20.6527 13.125 20.125 13.125H2.875Z" fill="black"/>
<path d="M18.2083 13.125C17.6793 13.125 17.25 12.705 17.25 12.1875V7.5C17.25 4.39875 14.6702 1.875 11.5 1.875C8.32984 1.875 5.75 4.39875 5.75 7.5V12.1875C5.75 12.705 5.32067 13.125 4.79167 13.125C4.26267 13.125 3.83334 12.705 3.83334 12.1875V7.5C3.83334 3.36375 7.27184 0 11.5 0C15.7282 0 19.1667 3.36375 19.1667 7.5V12.1875C19.1667 12.705 18.7373 13.125 18.2083 13.125Z" fill="black"/>
<path d="M11.5 21.25C10.0906 21.25 8.94445 20.1287 8.94445 18.75C8.94445 17.3712 10.0906 16.25 11.5 16.25C12.9094 16.25 14.0556 17.3712 14.0556 18.75C14.0556 20.1287 12.9094 21.25 11.5 21.25ZM11.5 18.125C11.1486 18.125 10.8611 18.405 10.8611 18.75C10.8611 19.095 11.1486 19.375 11.5 19.375C11.8514 19.375 12.1389 19.095 12.1389 18.75C12.1389 18.405 11.8514 18.125 11.5 18.125Z" fill="black"/>
<path d="M11.5 25C10.971 25 10.5417 24.58 10.5417 24.0625V20.625C10.5417 20.1075 10.971 19.6875 11.5 19.6875C12.029 19.6875 12.4583 20.1075 12.4583 20.625V24.0625C12.4583 24.58 12.029 25 11.5 25Z" fill="black"/>
</svg>
