<svg width="45" height="45" viewBox="0 0 45 45" fill="none" xmlns="http://www.w3.org/2000/svg">
<path d="M18.7258 27.5084H15.9169V24.8718C15.9169 24.3865 15.4977 23.9929 14.9806 23.9929C14.4636 23.9929 14.0444 24.3865 14.0444 24.8718V27.5084H11.2356C10.7185 27.5084 10.2992 27.9019 10.2992 28.3872C10.2992 28.8724 10.7185 29.2661 11.2356 29.2661H14.0444V31.9026C14.0444 32.388 14.4637 32.7815 14.9806 32.7815C15.4976 32.7815 15.9169 32.388 15.9169 31.9026V29.2661H18.7258C19.2428 29.2661 19.6621 28.8725 19.6621 28.3872C19.6621 27.9019 19.2429 27.5084 18.7258 27.5084Z" fill="#C00000"/>
<path d="M43.9962 28.2993C41.9264 24.9344 37.35 23.7827 33.7645 25.726L29.9613 27.787V20.155C29.9613 19.2115 29.6289 18.2752 29.025 17.5184L24.3437 11.6596V9.1647C25.4334 8.80188 26.2162 7.82507 26.2162 6.67924V2.63654C26.216 1.18274 24.956 0 23.4072 0H6.55406C5.00527 0 3.74515 1.18274 3.74515 2.63654V6.67933C3.74515 7.82498 4.52802 8.80197 5.61772 9.16479V11.6596L0.93596 17.5189C0.332399 18.2753 0 19.2115 0 20.155V37.1758C0 39.5989 2.1001 41.5701 4.68139 41.5701H19.7285C21.8278 44.8733 26.3546 45.9788 29.903 44.0556L41.2548 37.9035C44.8086 35.9771 46.0763 31.6827 43.9962 28.2993ZM5.61772 2.63654C5.61772 2.15191 6.03776 1.75763 6.55396 1.75763H23.4071C23.9234 1.75763 24.3435 2.15191 24.3435 2.63654V6.67933C24.3435 7.16396 23.9234 7.55815 23.4071 7.55815H6.55406C6.03776 7.55815 5.61782 7.16387 5.61782 6.67933V2.63654H5.61772ZM2.43447 18.5729L7.30303 12.4798C7.42457 12.3278 7.4903 12.1427 7.4903 11.9525V9.31596H22.4709V11.0737H14.0444C13.5273 11.0737 13.108 11.4673 13.108 11.9526C13.108 12.4379 13.5273 12.8315 14.0444 12.8315H22.9391L27.5264 18.5727C27.8263 18.9484 28.0125 19.398 28.0688 19.8624H1.89252C1.9487 19.3979 2.13494 18.9483 2.43447 18.5729ZM4.68148 39.8124C3.13269 39.8124 1.87267 38.6296 1.87267 37.1758V36.2882H18.8835C18.5866 37.4277 18.5886 38.6448 18.9286 39.8125H4.68148V39.8124ZM19.6179 34.5392H1.87257V21.6199H28.0886V28.8017L22.4127 31.8781C21.2292 32.5198 20.2727 33.4332 19.6179 34.5392ZM28.9669 42.5333C26.2799 43.9897 22.8464 43.1284 21.2937 40.6045C19.7337 38.0562 20.6791 34.8478 23.3492 33.4002L28.4313 30.6458L34.049 39.779L28.9669 42.5333ZM40.3185 36.3813L35.6708 38.9002L30.053 29.7669L34.7007 27.2483C37.3895 25.7912 40.8218 26.654 42.3745 29.1781C43.9339 31.7148 42.9856 34.9356 40.3185 36.3813Z" fill="#C00000"/>
</svg>
