<svg width="30" height="38" viewBox="0 0 30 38" fill="none" xmlns="http://www.w3.org/2000/svg">
<path d="M5 28.5H25C25.6875 28.5 26.25 27.7875 26.25 26.9167C26.25 26.0458 25.6875 25.3333 25 25.3333H5C4.3125 25.3333 3.75 26.0458 3.75 26.9167C3.75 27.7875 4.3125 28.5 5 28.5ZM5 20.5833H25C25.6875 20.5833 26.25 19.8708 26.25 19C26.25 18.1292 25.6875 17.4167 25 17.4167H5C4.3125 17.4167 3.75 18.1292 3.75 19C3.75 19.8708 4.3125 20.5833 5 20.5833ZM3.75 11.0833C3.75 11.9542 4.3125 12.6667 5 12.6667H25C25.6875 12.6667 26.25 11.9542 26.25 11.0833C26.25 10.2125 25.6875 9.5 25 9.5H5C4.3125 9.5 3.75 10.2125 3.75 11.0833Z" fill="black"/>
</svg>
