<svg width="25" height="25" viewBox="0 0 30 30" fill="none" xmlns="http://www.w3.org/2000/svg">
<path d="M24.1271 20.5226V12.9217C24.1271 8.25466 21.634 4.34776 17.2862 3.31403V2.28029C17.2862 1.01853 16.2525 0 14.9908 0C13.729 0 12.7257 1.01853 12.7257 2.28029V3.31403C8.3627 4.34776 5.88478 8.23946 5.88478 12.9217V20.5226L3.90853 22.4837C2.95081 23.4414 3.61969 25.0832 4.97267 25.0832H24.9936C26.3466 25.0832 27.0307 23.4414 26.073 22.4837L24.1271 20.5226ZM14.9908 29.6438C16.663 29.6438 18.0311 28.2756 18.0311 26.6034H11.9504C11.9504 28.2756 13.3033 29.6438 14.9908 29.6438ZM7.05533 3.39004C7.69382 2.81236 7.70902 1.82423 7.10094 1.21616C6.52327 0.638482 5.58074 0.62328 4.98787 1.18575C2.38833 3.55726 0.594504 6.78007 0.01683 10.3981C-0.119988 11.3255 0.594504 12.1616 1.53703 12.1616C2.26672 12.1616 2.9052 11.6295 3.02682 10.8998C3.48288 7.95062 4.94226 5.32068 7.05533 3.39004V3.39004ZM25.0392 1.18575C24.4312 0.62328 23.4886 0.638482 22.911 1.21616C22.3029 1.82423 22.3333 2.79716 22.9566 3.37483C25.0544 5.30548 26.529 7.93542 26.9851 10.8846C27.0915 11.6143 27.73 12.1464 28.4749 12.1464C29.4022 12.1464 30.1319 11.3103 29.9799 10.3829C29.4022 6.78007 27.6236 3.57246 25.0392 1.18575V1.18575Z" fill="currentColor"/>
</svg>
