<svg width="36" height="36" viewBox="0 0 36 36" fill="none" xmlns="http://www.w3.org/2000/svg">
<path d="M18 14.6667H22.4444C23.0556 14.6667 23.5556 14.1667 23.5556 13.5556C23.5556 12.9444 23.0556 12.4444 22.4444 12.4444H18C17.3889 12.4444 16.8889 12.9444 16.8889 13.5556C16.8889 14.1667 17.3889 14.6667 18 14.6667ZM18 19.1111H22.4444C23.0556 19.1111 23.5556 18.6111 23.5556 18C23.5556 17.3889 23.0556 16.8889 22.4444 16.8889H18C17.3889 16.8889 16.8889 17.3889 16.8889 18C16.8889 18.6111 17.3889 19.1111 18 19.1111ZM18 23.5556H22.4444C23.0556 23.5556 23.5556 23.0556 23.5556 22.4444C23.5556 21.8333 23.0556 21.3333 22.4444 21.3333H18C17.3889 21.3333 16.8889 21.8333 16.8889 22.4444C16.8889 23.0556 17.3889 23.5556 18 23.5556ZM12.4444 12.4444H14.6667V14.6667H12.4444V12.4444ZM12.4444 16.8889H14.6667V19.1111H12.4444V16.8889ZM12.4444 21.3333H14.6667V23.5556H12.4444V21.3333ZM26.8889 8H9.11111C8.5 8 8 8.5 8 9.11111V26.8889C8 27.5 8.5 28 9.11111 28H26.8889C27.5 28 28 27.5 28 26.8889V9.11111C28 8.5 27.5 8 26.8889 8ZM25.7778 25.7778H10.2222V10.2222H25.7778V25.7778Z" fill="#ACACAC"/>
</svg>
