<svg width="20" height="29" viewBox="0 0 20 29" fill="none" xmlns="http://www.w3.org/2000/svg">
<path d="M10 0C4.48604 0 0 4.52205 0 10.0803C0 17.0664 10.0098 29 10.0098 29C10.0098 29 20 16.7228 20 10.0803C20 4.52205 15.5141 0 10 0ZM13.0172 13.0318C12.1852 13.8702 11.0927 14.2895 10 14.2895C8.90746 14.2895 7.81457 13.8702 6.98297 13.0318C5.31923 11.3549 5.31923 8.62619 6.98297 6.9491C7.78859 6.13666 8.86023 5.6892 10 5.6892C11.1398 5.6892 12.2112 6.13683 13.0172 6.9491C14.6809 8.62619 14.6809 11.3549 13.0172 13.0318Z" fill="#C00000"/>
</svg>
