<svg width="36" height="36" viewBox="0 0 36 36" fill="none" xmlns="http://www.w3.org/2000/svg">
<path d="M18 7C13.5888 7 10 10.4305 10 14.6471C10 19.9469 18.0079 29 18.0079 29C18.0079 29 26 19.6863 26 14.6471C26 10.4305 22.4113 7 18 7ZM20.4138 16.8862C19.7482 17.5222 18.8742 17.8403 18 17.8403C17.126 17.8403 16.2517 17.5222 15.5864 16.8862C14.2554 15.614 14.2554 13.544 15.5864 12.2717C16.2309 11.6554 17.0882 11.3159 18 11.3159C18.9118 11.3159 19.769 11.6555 20.4138 12.2717C21.7448 13.544 21.7448 15.614 20.4138 16.8862Z" fill="#ACACAC"/>
</svg>
