<svg width="36" height="36" viewBox="0 0 36 36" fill="none" xmlns="http://www.w3.org/2000/svg">
<path d="M17.645 7.18189L10.2561 10.4612C9.49611 10.7986 9 11.5578 9 12.3908V17.3467C9 23.1989 13.0533 28.6714 18.5 30C23.9467 28.6714 28 23.1989 28 17.3467V12.3908C28 11.5578 27.5039 10.7986 26.7439 10.4612L19.355 7.18189C18.8167 6.93937 18.1833 6.93937 17.645 7.18189ZM15.6394 22.9247L12.9056 20.1937C12.4939 19.7825 12.4939 19.1182 12.9056 18.7069C13.3172 18.2957 13.9822 18.2957 14.3939 18.7069L16.3889 20.6893L22.5956 14.4892C23.0072 14.0779 23.6722 14.0779 24.0839 14.4892C24.4956 14.9004 24.4956 15.5647 24.0839 15.9759L17.1278 22.9247C16.7267 23.3359 16.0511 23.3359 15.6394 22.9247Z" fill="#ACACAC"/>
</svg>
