<svg width="25" height="25" viewBox="0 0 30 30" fill="none" xmlns="http://www.w3.org/2000/svg">
<path d="M13.7129 27.6054H3.51885C3.1401 27.6054 2.79497 27.4301 2.57182 27.1245C2.3486 26.8188 2.28715 26.4369 2.40313 26.0767C3.56129 22.4822 7.09327 19.9717 10.9922 19.9717C12.8064 19.9717 14.5486 20.5171 16.0304 21.5488C16.5612 21.9184 17.2915 21.7885 17.6618 21.2586C18.032 20.7288 17.9018 19.9997 17.3711 19.6301C16.6375 19.1193 15.8538 18.7027 15.034 18.3846C16.1247 17.3946 16.8483 16.0083 16.974 14.4559C18.6279 12.8476 20.7957 11.9664 23.1196 11.9664C24.9338 11.9664 26.6759 12.5118 28.1578 13.5435C28.6885 13.913 29.4189 13.7831 29.7892 13.2533C30.1593 12.7234 30.0292 11.9943 29.4984 11.6247C28.7649 11.1139 27.9812 10.6973 27.1614 10.3792C28.3646 9.28711 29.121 7.71281 29.121 5.96543C29.121 2.67615 26.4403 0 23.1452 0C19.8502 0 17.1694 2.67615 17.1694 5.96555C17.1694 7.70584 17.9197 9.27451 19.1145 10.3661C18.951 10.4289 18.7887 10.4957 18.6276 10.5664C17.8944 10.8885 17.2048 11.2839 16.5638 11.749C15.6794 9.55676 13.5266 8.00531 11.0178 8.00531C7.72265 8.00531 5.04197 10.6815 5.04197 13.9709C5.04197 15.7061 5.78797 17.2706 6.97653 18.3618C3.79835 19.5507 1.22138 22.1041 0.172278 25.3604C-0.175662 26.4404 0.00863849 27.5856 0.677988 28.5024C1.34722 29.4191 2.38265 29.9449 3.51885 29.9449H13.7129C14.36 29.9449 14.8846 29.4212 14.8846 28.7752C14.8846 28.1292 14.36 27.6054 13.7129 27.6054ZM23.1453 2.33941C25.1482 2.33941 26.7776 3.96609 26.7776 5.96555C26.7776 7.965 25.1482 9.59168 23.1453 9.59168C21.1424 9.59168 19.5129 7.965 19.5129 5.96555C19.5129 3.96609 21.1424 2.33941 23.1453 2.33941ZM11.0179 10.3447C13.0208 10.3447 14.6502 11.9714 14.6502 13.9709C14.6502 15.9703 13.0208 17.597 11.0179 17.597C9.01498 17.597 7.38551 15.9703 7.38551 13.9709C7.38551 11.9714 9.01498 10.3447 11.0179 10.3447ZM29.781 20.7383L23.982 28.8246C23.9693 28.8422 23.9563 28.8595 23.9426 28.8765C23.4161 29.5304 22.6331 29.9376 21.7944 29.9934C21.7281 29.9978 21.6618 30 21.5956 30C20.8258 30 20.0776 29.7036 19.517 29.171L15.7743 25.5834C15.3075 25.136 15.2925 24.3954 15.7407 23.9295C16.1887 23.4636 16.9306 23.4484 17.3974 23.8959L21.1364 27.48C21.3179 27.6525 21.5296 27.6666 21.6385 27.6591C21.7445 27.6521 21.9421 27.6127 22.0998 27.4301L27.8753 19.3765C28.252 18.8512 28.9839 18.7303 29.5102 19.1064C30.0365 19.4824 30.1576 20.2131 29.781 20.7383Z" fill="currentColor"/>
</svg>
