<svg width="10" height="15" viewBox="0 0 10 15" fill="none" xmlns="http://www.w3.org/2000/svg">
<path d="M5 0C2.24302 0 0 2.26102 0 5.04013C0 8.53318 5.00492 14.5 5.00492 14.5C5.00492 14.5 10 8.3614 10 5.04013C10 2.26102 7.75707 0 5 0ZM6.5086 6.51588C6.09262 6.93511 5.54636 7.14477 5 7.14477C4.45373 7.14477 3.90729 6.93511 3.49148 6.51588C2.65961 5.67743 2.65961 4.3131 3.49148 3.47455C3.89429 3.06833 4.43011 2.8446 5 2.8446C5.56989 2.8446 6.10562 3.06842 6.5086 3.47455C7.34047 4.3131 7.34047 5.67743 6.5086 6.51588Z" fill="#C00000"/>
</svg>
