<svg width="37" height="37" viewBox="0 0 37 37" fill="none" xmlns="http://www.w3.org/2000/svg">
<path d="M11.0959 29.6C9.06163 29.6 7.41575 31.265 7.41575 33.3C7.41575 35.335 9.06163 37 11.0959 37C13.1301 37 14.7945 35.335 14.7945 33.3C14.7945 31.265 13.1301 29.6 11.0959 29.6ZM0 1.85C0 2.8675 0.832191 3.7 1.84931 3.7H3.69863L10.3562 17.7415L7.85958 22.2555C6.50958 24.7345 8.28492 27.75 11.0959 27.75H31.4383C32.4554 27.75 33.2876 26.9175 33.2876 25.9C33.2876 24.8825 32.4554 24.05 31.4383 24.05H11.0959L13.1301 20.35H26.9075C28.2945 20.35 29.515 19.5915 30.1438 18.4445L36.7643 6.438C37.4486 5.217 36.5609 3.7 35.1554 3.7H7.78561L6.54657 1.0545C6.25068 0.407 5.58493 0 4.88219 0H1.84931C0.832191 0 0 0.8325 0 1.85V1.85ZM29.589 29.6C27.5548 29.6 25.9089 31.265 25.9089 33.3C25.9089 35.335 27.5548 37 29.589 37C31.6233 37 33.2876 35.335 33.2876 33.3C33.2876 31.265 31.6233 29.6 29.589 29.6Z" fill="black"/>
</svg>
