<svg width="21" height="21" viewBox="0 0 21 21" fill="none" xmlns="http://www.w3.org/2000/svg">
<path d="M15.3984 13.5427H14.4252L14.0803 13.2103C15.5585 11.4868 16.3222 9.13542 15.9034 6.63632C15.3244 3.2139 12.4667 0.480893 9.0176 0.0623244C3.80705 -0.57784 -0.578179 3.80482 0.062361 9.01231C0.481175 12.4593 3.21579 15.3155 6.64021 15.8941C9.14078 16.3126 11.4935 15.5494 13.2181 14.0721L13.5506 14.4168V15.3893L18.7858 20.6214C19.2909 21.1262 20.1162 21.1262 20.6212 20.6214C21.1263 20.1167 21.1263 19.2919 20.6212 18.7871L15.3984 13.5427ZM8.00752 13.5427C4.94032 13.5427 2.46438 11.0682 2.46438 8.00282C2.46438 4.93742 4.94032 2.46294 8.00752 2.46294C11.0747 2.46294 13.5506 4.93742 13.5506 8.00282C13.5506 11.0682 11.0747 13.5427 8.00752 13.5427Z" fill="black"/>
</svg>
