<svg width="36" height="36" viewBox="0 0 36 36" fill="none" xmlns="http://www.w3.org/2000/svg">
<path d="M28 14.54V12C28 10.9 27.1 10 26 10H10C8.9 10 8.01 10.89 8.01 12V14.54C8.01 15.23 8.34 15.91 8.95 16.23C9.58 16.58 10 17.24 10 18C10 18.76 9.57 19.43 8.94 19.76C8.34 20.09 8 20.77 8 21.46V24C8 25.1 8.9 26 10 26H26C27.1 26 28 25.1 28 24V21.46C28 20.77 27.66 20.09 27.06 19.76C26.43 19.42 26 18.76 26 18C26 17.24 26.43 16.58 27.06 16.24C27.66 15.91 28 15.23 28 14.54ZM19 23.5H17V21.5H19V23.5ZM19 19H17V17H19V19ZM19 14.5H17V12.5H19V14.5Z" fill="#ACACAC"/>
</svg>
