<svg width="20" height="25" viewBox="0 0 20 25" fill="none" xmlns="http://www.w3.org/2000/svg">
<path d="M19.5195 15.0796H18.9706V12.1107C18.9706 11.0022 18.0831 10.1002 16.9922 10.1002H16.3292L18.263 6.37799C18.4644 5.99039 18.505 5.54634 18.3773 5.12768C18.2495 4.70853 17.9683 4.36511 17.5856 4.16066L10.1492 0.188659C9.36053 -0.232638 8.38066 0.0755223 7.96493 0.87549L3.17228 10.1002H1.97834C0.887475 10.1002 0 11.0022 0 12.1107V22.9895C0 24.0981 0.887475 25 1.97834 25H16.9923C18.0832 25 18.9707 24.0981 18.9707 22.9895V20.0207H19.5195C19.7849 20.0207 20 19.802 20 19.5324V15.5679C20 15.2982 19.7848 15.0796 19.5195 15.0796ZM8.81474 1.33146C8.98344 1.00674 9.38148 0.881886 9.70207 1.05308L17.1386 5.02509C17.2938 5.10795 17.4077 5.24706 17.4595 5.41674C17.5111 5.58589 17.4946 5.76533 17.4133 5.92203L15.2425 10.1002H13.9527L15.1788 7.74042C15.2383 7.62572 15.2506 7.49174 15.2128 7.36786C15.175 7.24403 15.0903 7.14056 14.9774 7.0802C14.6626 6.91209 14.4313 6.62976 14.3263 6.28532C14.2215 5.9417 14.2549 5.5772 14.4202 5.25893C14.4798 5.14423 14.492 5.01024 14.4542 4.88636C14.4165 4.76253 14.3317 4.65906 14.2188 4.59871L11.697 3.25181C11.4625 3.12656 11.1723 3.21782 11.0486 3.45606C10.7064 4.11457 9.89941 4.36789 9.24963 4.02091C9.0151 3.89567 8.72493 3.98698 8.60116 4.22517L5.54881 10.1002H4.25897L8.81474 1.33146ZM13.4084 6.57443C13.5411 7.0096 13.7905 7.38724 14.1276 7.67192L12.866 10.1002H6.6355L9.2506 5.06683C10.1161 5.31327 11.0534 5.01893 11.6296 4.31911L13.3903 5.25951C13.2713 5.68677 13.2759 6.14024 13.4084 6.57443ZM18.0097 22.9895C18.0097 23.5596 17.5533 24.0234 16.9923 24.0234H1.97834C1.41737 24.0234 0.960991 23.5596 0.960991 22.9895V12.1107C0.960991 11.5406 1.41737 11.0768 1.97834 11.0768H16.9923C17.5533 11.0768 18.0097 11.5406 18.0097 12.1107V15.0796H16.1335C14.7931 15.0796 13.7024 16.1879 13.7024 17.5501C13.7024 18.9124 14.793 20.0207 16.1335 20.0207H18.0097V22.9895ZM19.039 19.0441H16.1335C15.3229 19.0441 14.6634 18.3738 14.6634 17.5501C14.6634 16.7263 15.3229 16.0561 16.1335 16.0561H19.039V19.0441Z" fill="#ACACAC"/>
</svg>
